<!-- GBSelfTest logo — the pass mark, the wordmark, the full stop
     Hand-authored for GBSelfTest (MIT). No font embedded, subset or traced;
     letterforms are original stroked paths. Regenerate with docs/brand/generate.py -->
<svg xmlns="http://www.w3.org/2000/svg" viewBox="0 0 1200 380" width="1200" height="380" role="img">
<rect x="1" y="1" width="1198" height="378" rx="24" fill="#0d1117" stroke="#30363d" stroke-width="2"/>
<path transform="translate(75.0 108.0) scale(1.1878)" d="M13 48 L36 74 L83 26" fill="none" stroke="#9bbc0f" stroke-width="26" stroke-linecap="round" stroke-linejoin="round"/>
<path transform="translate(224.7 108.0) scale(1.1878)" d="M57 13 H13 V87 H57 V56 H42" fill="none" stroke="#f0f3f6" stroke-width="26" stroke-linecap="round" stroke-linejoin="round"/>
<path transform="translate(317.3 108.0) scale(1.1878)" d="M13 13 V87" fill="none" stroke="#f0f3f6" stroke-width="26" stroke-linecap="round" stroke-linejoin="round"/>
<path transform="translate(317.3 108.0) scale(1.1878)" d="M13 13 H35 A18 18 0 0 1 35 49 H13" fill="none" stroke="#f0f3f6" stroke-width="26" stroke-linecap="round" stroke-linejoin="round"/>
<path transform="translate(317.3 108.0) scale(1.1878)" d="M13 49 H37 A19 19 0 0 1 37 87 H13" fill="none" stroke="#f0f3f6" stroke-width="26" stroke-linecap="round" stroke-linejoin="round"/>
<path transform="translate(405.2 108.0) scale(1.1878)" d="M57 13 H36 A23 18.5 0 0 0 36 50 A23 18.5 0 0 1 36 87 H15" fill="none" stroke="#f0f3f6" stroke-width="26" stroke-linecap="round" stroke-linejoin="round"/>
<path transform="translate(500.2 108.0) scale(1.1878)" d="M43 13 H13 V87 H43" fill="none" stroke="#f0f3f6" stroke-width="26" stroke-linecap="round" stroke-linejoin="round"/>
<path transform="translate(500.2 108.0) scale(1.1878)" d="M13 50 H36" fill="none" stroke="#f0f3f6" stroke-width="26" stroke-linecap="round" stroke-linejoin="round"/>
<path transform="translate(576.2 108.0) scale(1.1878)" d="M13 13 V87 H41" fill="none" stroke="#f0f3f6" stroke-width="26" stroke-linecap="round" stroke-linejoin="round"/>
<path transform="translate(649.9 108.0) scale(1.1878)" d="M43 13 H13 V87" fill="none" stroke="#f0f3f6" stroke-width="26" stroke-linecap="round" stroke-linejoin="round"/>
<path transform="translate(649.9 108.0) scale(1.1878)" d="M13 50 H36" fill="none" stroke="#f0f3f6" stroke-width="26" stroke-linecap="round" stroke-linejoin="round"/>
<path transform="translate(725.9 108.0) scale(1.1878)" d="M13 13 H59" fill="none" stroke="#f0f3f6" stroke-width="26" stroke-linecap="round" stroke-linejoin="round"/>
<path transform="translate(725.9 108.0) scale(1.1878)" d="M36 13 V87" fill="none" stroke="#f0f3f6" stroke-width="26" stroke-linecap="round" stroke-linejoin="round"/>
<path transform="translate(820.9 108.0) scale(1.1878)" d="M43 13 H13 V87 H43" fill="none" stroke="#f0f3f6" stroke-width="26" stroke-linecap="round" stroke-linejoin="round"/>
<path transform="translate(820.9 108.0) scale(1.1878)" d="M13 50 H36" fill="none" stroke="#f0f3f6" stroke-width="26" stroke-linecap="round" stroke-linejoin="round"/>
<path transform="translate(896.9 108.0) scale(1.1878)" d="M57 13 H36 A23 18.5 0 0 0 36 50 A23 18.5 0 0 1 36 87 H15" fill="none" stroke="#f0f3f6" stroke-width="26" stroke-linecap="round" stroke-linejoin="round"/>
<path transform="translate(992.0 108.0) scale(1.1878)" d="M13 13 H59" fill="none" stroke="#f0f3f6" stroke-width="26" stroke-linecap="round" stroke-linejoin="round"/>
<path transform="translate(992.0 108.0) scale(1.1878)" d="M36 13 V87" fill="none" stroke="#f0f3f6" stroke-width="26" stroke-linecap="round" stroke-linejoin="round"/>
<circle cx="1106.0" cy="207.8" r="19.0" fill="#9bbc0f"/>
<path transform="translate(223.5 288.0) scale(0.3000)" d="M11 87 L38 15 L65 87" fill="none" stroke="#8b949e" stroke-width="26" stroke-linecap="round" stroke-linejoin="round"/>
<path transform="translate(223.5 288.0) scale(0.3000)" d="M23 62 H53" fill="none" stroke="#8b949e" stroke-width="26" stroke-linecap="round" stroke-linejoin="round"/>
<path transform="translate(263.7 288.0) scale(0.3000)" d="M42 18 A19 37 0 1 0 42 82" fill="none" stroke="#8b949e" stroke-width="26" stroke-linecap="round" stroke-linejoin="round"/>
<path transform="translate(285.9 288.0) scale(0.3000)" d="M11 87 L38 15 L65 87" fill="none" stroke="#8b949e" stroke-width="26" stroke-linecap="round" stroke-linejoin="round"/>
<path transform="translate(285.9 288.0) scale(0.3000)" d="M23 62 H53" fill="none" stroke="#8b949e" stroke-width="26" stroke-linecap="round" stroke-linejoin="round"/>
<path transform="translate(312.9 288.0) scale(0.3000)" d="M13 87 V13 H36 A19 19 0 0 1 36 51 H13" fill="none" stroke="#8b949e" stroke-width="26" stroke-linecap="round" stroke-linejoin="round"/>
<path transform="translate(312.9 288.0) scale(0.3000)" d="M37 54 L54 87" fill="none" stroke="#8b949e" stroke-width="26" stroke-linecap="round" stroke-linejoin="round"/>
<path transform="translate(337.5 288.0) scale(0.3000)" d="M13 13 H59" fill="none" stroke="#8b949e" stroke-width="26" stroke-linecap="round" stroke-linejoin="round"/>
<path transform="translate(337.5 288.0) scale(0.3000)" d="M36 13 V87" fill="none" stroke="#8b949e" stroke-width="26" stroke-linecap="round" stroke-linejoin="round"/>
<path transform="translate(363.3 288.0) scale(0.3000)" d="M13 87 V13 H36 A19 19 0 0 1 36 51 H13" fill="none" stroke="#8b949e" stroke-width="26" stroke-linecap="round" stroke-linejoin="round"/>
<path transform="translate(363.3 288.0) scale(0.3000)" d="M37 54 L54 87" fill="none" stroke="#8b949e" stroke-width="26" stroke-linecap="round" stroke-linejoin="round"/>
<path transform="translate(387.9 288.0) scale(0.3000)" d="M13 13 V87" fill="none" stroke="#8b949e" stroke-width="26" stroke-linecap="round" stroke-linejoin="round"/>
<path transform="translate(399.9 288.0) scale(0.3000)" d="M13 13 V87" fill="none" stroke="#8b949e" stroke-width="26" stroke-linecap="round" stroke-linejoin="round"/>
<path transform="translate(399.9 288.0) scale(0.3000)" d="M13 13 H31 A24 37 0 0 1 31 87 H13" fill="none" stroke="#8b949e" stroke-width="26" stroke-linecap="round" stroke-linejoin="round"/>
<path transform="translate(424.5 288.0) scale(0.3000)" d="M57 13 H13 V87 H57 V56 H42" fill="none" stroke="#8b949e" stroke-width="26" stroke-linecap="round" stroke-linejoin="round"/>
<path transform="translate(449.7 288.0) scale(0.3000)" d="M43 13 H13 V87 H43" fill="none" stroke="#8b949e" stroke-width="26" stroke-linecap="round" stroke-linejoin="round"/>
<path transform="translate(449.7 288.0) scale(0.3000)" d="M13 50 H36" fill="none" stroke="#8b949e" stroke-width="26" stroke-linecap="round" stroke-linejoin="round"/>
<path transform="translate(483.9 288.0) scale(0.3000)" d="M13 13 H59" fill="none" stroke="#8b949e" stroke-width="26" stroke-linecap="round" stroke-linejoin="round"/>
<path transform="translate(483.9 288.0) scale(0.3000)" d="M36 13 V87" fill="none" stroke="#8b949e" stroke-width="26" stroke-linecap="round" stroke-linejoin="round"/>
<path transform="translate(509.7 288.0) scale(0.3000)" d="M13 13 V87" fill="none" stroke="#8b949e" stroke-width="26" stroke-linecap="round" stroke-linejoin="round"/>
<path transform="translate(509.7 288.0) scale(0.3000)" d="M53 13 V87" fill="none" stroke="#8b949e" stroke-width="26" stroke-linecap="round" stroke-linejoin="round"/>
<path transform="translate(509.7 288.0) scale(0.3000)" d="M13 50 H53" fill="none" stroke="#8b949e" stroke-width="26" stroke-linecap="round" stroke-linejoin="round"/>
<path transform="translate(533.7 288.0) scale(0.3000)" d="M11 87 L38 15 L65 87" fill="none" stroke="#8b949e" stroke-width="26" stroke-linecap="round" stroke-linejoin="round"/>
<path transform="translate(533.7 288.0) scale(0.3000)" d="M23 62 H53" fill="none" stroke="#8b949e" stroke-width="26" stroke-linecap="round" stroke-linejoin="round"/>
<path transform="translate(560.7 288.0) scale(0.3000)" d="M13 13 H59" fill="none" stroke="#8b949e" stroke-width="26" stroke-linecap="round" stroke-linejoin="round"/>
<path transform="translate(560.7 288.0) scale(0.3000)" d="M36 13 V87" fill="none" stroke="#8b949e" stroke-width="26" stroke-linecap="round" stroke-linejoin="round"/>
<path transform="translate(599.7 288.0) scale(0.3000)" d="M13 13 H59" fill="none" stroke="#8b949e" stroke-width="26" stroke-linecap="round" stroke-linejoin="round"/>
<path transform="translate(599.7 288.0) scale(0.3000)" d="M36 13 V87" fill="none" stroke="#8b949e" stroke-width="26" stroke-linecap="round" stroke-linejoin="round"/>
<path transform="translate(625.5 288.0) scale(0.3000)" d="M43 13 H13 V87 H43" fill="none" stroke="#8b949e" stroke-width="26" stroke-linecap="round" stroke-linejoin="round"/>
<path transform="translate(625.5 288.0) scale(0.3000)" d="M13 50 H36" fill="none" stroke="#8b949e" stroke-width="26" stroke-linecap="round" stroke-linejoin="round"/>
<path transform="translate(646.5 288.0) scale(0.3000)" d="M57 13 H36 A23 18.5 0 0 0 36 50 A23 18.5 0 0 1 36 87 H15" fill="none" stroke="#8b949e" stroke-width="26" stroke-linecap="round" stroke-linejoin="round"/>
<path transform="translate(672.3 288.0) scale(0.3000)" d="M13 13 H59" fill="none" stroke="#8b949e" stroke-width="26" stroke-linecap="round" stroke-linejoin="round"/>
<path transform="translate(672.3 288.0) scale(0.3000)" d="M36 13 V87" fill="none" stroke="#8b949e" stroke-width="26" stroke-linecap="round" stroke-linejoin="round"/>
<path transform="translate(698.1 288.0) scale(0.3000)" d="M57 13 H36 A23 18.5 0 0 0 36 50 A23 18.5 0 0 1 36 87 H15" fill="none" stroke="#8b949e" stroke-width="26" stroke-linecap="round" stroke-linejoin="round"/>
<path transform="translate(737.1 288.0) scale(0.3000)" d="M13 13 H59" fill="none" stroke="#8b949e" stroke-width="26" stroke-linecap="round" stroke-linejoin="round"/>
<path transform="translate(737.1 288.0) scale(0.3000)" d="M36 13 V87" fill="none" stroke="#8b949e" stroke-width="26" stroke-linecap="round" stroke-linejoin="round"/>
<path transform="translate(762.9 288.0) scale(0.3000)" d="M13 13 V87" fill="none" stroke="#8b949e" stroke-width="26" stroke-linecap="round" stroke-linejoin="round"/>
<path transform="translate(762.9 288.0) scale(0.3000)" d="M53 13 V87" fill="none" stroke="#8b949e" stroke-width="26" stroke-linecap="round" stroke-linejoin="round"/>
<path transform="translate(762.9 288.0) scale(0.3000)" d="M13 50 H53" fill="none" stroke="#8b949e" stroke-width="26" stroke-linecap="round" stroke-linejoin="round"/>
<path transform="translate(786.9 288.0) scale(0.3000)" d="M43 13 H13 V87 H43" fill="none" stroke="#8b949e" stroke-width="26" stroke-linecap="round" stroke-linejoin="round"/>
<path transform="translate(786.9 288.0) scale(0.3000)" d="M13 50 H36" fill="none" stroke="#8b949e" stroke-width="26" stroke-linecap="round" stroke-linejoin="round"/>
<path transform="translate(821.1 288.0) scale(0.3000)" d="M13 87 V13 L43 57 L73 13 V87" fill="none" stroke="#8b949e" stroke-width="26" stroke-linecap="round" stroke-linejoin="round"/>
<path transform="translate(851.1 288.0) scale(0.3000)" d="M11 87 L38 15 L65 87" fill="none" stroke="#8b949e" stroke-width="26" stroke-linecap="round" stroke-linejoin="round"/>
<path transform="translate(851.1 288.0) scale(0.3000)" d="M23 62 H53" fill="none" stroke="#8b949e" stroke-width="26" stroke-linecap="round" stroke-linejoin="round"/>
<path transform="translate(878.1 288.0) scale(0.3000)" d="M42 18 A19 37 0 1 0 42 82" fill="none" stroke="#8b949e" stroke-width="26" stroke-linecap="round" stroke-linejoin="round"/>
<path transform="translate(900.3 288.0) scale(0.3000)" d="M13 13 V87" fill="none" stroke="#8b949e" stroke-width="26" stroke-linecap="round" stroke-linejoin="round"/>
<path transform="translate(900.3 288.0) scale(0.3000)" d="M53 13 V87" fill="none" stroke="#8b949e" stroke-width="26" stroke-linecap="round" stroke-linejoin="round"/>
<path transform="translate(900.3 288.0) scale(0.3000)" d="M13 50 H53" fill="none" stroke="#8b949e" stroke-width="26" stroke-linecap="round" stroke-linejoin="round"/>
<path transform="translate(924.3 288.0) scale(0.3000)" d="M13 13 V87" fill="none" stroke="#8b949e" stroke-width="26" stroke-linecap="round" stroke-linejoin="round"/>
<path transform="translate(936.3 288.0) scale(0.3000)" d="M13 87 V13 L51 87 V13" fill="none" stroke="#8b949e" stroke-width="26" stroke-linecap="round" stroke-linejoin="round"/>
<path transform="translate(959.7 288.0) scale(0.3000)" d="M43 13 H13 V87 H43" fill="none" stroke="#8b949e" stroke-width="26" stroke-linecap="round" stroke-linejoin="round"/>
<path transform="translate(959.7 288.0) scale(0.3000)" d="M13 50 H36" fill="none" stroke="#8b949e" stroke-width="26" stroke-linecap="round" stroke-linejoin="round"/>
</svg>
