<!-- PixelGB logo — the stitched sheet, the wordmark, the full stop
     Hand-authored for PixelGB (CC BY-SA 4.0). No font embedded, subset or traced;
     letterforms are original stroked paths. Regenerate with docs/brand/generate.py -->
<svg xmlns="http://www.w3.org/2000/svg" viewBox="0 0 1200 380" width="1200" height="380" role="img">
<rect x="1" y="1" width="1198" height="378" rx="24" fill="#0d1117" stroke="#30363d" stroke-width="2"/>
<rect x="154.4" y="82.5" width="43.5" height="43.5" rx="5.4" fill="#9bbc0f"/>
<rect x="212.4" y="82.5" width="87.0" height="43.5" rx="5.4" fill="#9bbc0f"/>
<rect x="154.4" y="140.5" width="72.5" height="87.0" rx="5.4" fill="#9bbc0f"/>
<rect x="241.4" y="140.5" width="58.0" height="87.0" rx="5.4" fill="#9bbc0f"/>
<path transform="translate(398.9 84.0) scale(1.4200)" d="M13 87 V13" fill="none" stroke="#f0f3f6" stroke-width="26" stroke-linecap="round" stroke-linejoin="round"/>
<path transform="translate(398.9 84.0) scale(1.4200)" d="M13 13 H32 A17 18 0 0 1 32 49 H13" fill="none" stroke="#f0f3f6" stroke-width="26" stroke-linecap="round" stroke-linejoin="round"/>
<path transform="translate(498.3 84.0) scale(1.4200)" d="M13 13 V87" fill="none" stroke="#f0f3f6" stroke-width="26" stroke-linecap="round" stroke-linejoin="round"/>
<path transform="translate(546.6 84.0) scale(1.4200)" d="M13 13 L51 87" fill="none" stroke="#f0f3f6" stroke-width="26" stroke-linecap="round" stroke-linejoin="round"/>
<path transform="translate(546.6 84.0) scale(1.4200)" d="M51 13 L13 87" fill="none" stroke="#f0f3f6" stroke-width="26" stroke-linecap="round" stroke-linejoin="round"/>
<path transform="translate(648.9 84.0) scale(1.4200)" d="M43 13 H13 V87 H43" fill="none" stroke="#f0f3f6" stroke-width="26" stroke-linecap="round" stroke-linejoin="round"/>
<path transform="translate(648.9 84.0) scale(1.4200)" d="M13 50 H36" fill="none" stroke="#f0f3f6" stroke-width="26" stroke-linecap="round" stroke-linejoin="round"/>
<path transform="translate(739.7 84.0) scale(1.4200)" d="M13 13 V87 H41" fill="none" stroke="#f0f3f6" stroke-width="26" stroke-linecap="round" stroke-linejoin="round"/>
<path transform="translate(827.8 84.0) scale(1.4200)" d="M57 13 H13 V87 H57 V56 H42" fill="none" stroke="#f0f3f6" stroke-width="26" stroke-linecap="round" stroke-linejoin="round"/>
<path transform="translate(938.5 84.0) scale(1.4200)" d="M13 13 V87" fill="none" stroke="#f0f3f6" stroke-width="26" stroke-linecap="round" stroke-linejoin="round"/>
<path transform="translate(938.5 84.0) scale(1.4200)" d="M13 13 H35 A18 18 0 0 1 35 49 H13" fill="none" stroke="#f0f3f6" stroke-width="26" stroke-linecap="round" stroke-linejoin="round"/>
<path transform="translate(938.5 84.0) scale(1.4200)" d="M13 49 H37 A19 19 0 0 1 37 87 H13" fill="none" stroke="#f0f3f6" stroke-width="26" stroke-linecap="round" stroke-linejoin="round"/>
<circle cx="1066.3" cy="203.3" r="22.7" fill="#9bbc0f"/>
<path transform="translate(338.1 300.0) scale(0.3000)" d="M43 13 H13 V87 H43" fill="none" stroke="#8b949e" stroke-width="26" stroke-linecap="round" stroke-linejoin="round"/>
<path transform="translate(338.1 300.0) scale(0.3000)" d="M13 50 H36" fill="none" stroke="#8b949e" stroke-width="26" stroke-linecap="round" stroke-linejoin="round"/>
<path transform="translate(359.1 300.0) scale(0.3000)" d="M13 13 L32 87 L51 13" fill="none" stroke="#8b949e" stroke-width="26" stroke-linecap="round" stroke-linejoin="round"/>
<path transform="translate(382.5 300.0) scale(0.3000)" d="M43 13 H13 V87 H43" fill="none" stroke="#8b949e" stroke-width="26" stroke-linecap="round" stroke-linejoin="round"/>
<path transform="translate(382.5 300.0) scale(0.3000)" d="M13 50 H36" fill="none" stroke="#8b949e" stroke-width="26" stroke-linecap="round" stroke-linejoin="round"/>
<path transform="translate(403.5 300.0) scale(0.3000)" d="M13 87 V13 H36 A19 19 0 0 1 36 51 H13" fill="none" stroke="#8b949e" stroke-width="26" stroke-linecap="round" stroke-linejoin="round"/>
<path transform="translate(403.5 300.0) scale(0.3000)" d="M37 54 L54 87" fill="none" stroke="#8b949e" stroke-width="26" stroke-linecap="round" stroke-linejoin="round"/>
<path transform="translate(428.1 300.0) scale(0.3000)" d="M13 13 L32 47 L51 13" fill="none" stroke="#8b949e" stroke-width="26" stroke-linecap="round" stroke-linejoin="round"/>
<path transform="translate(428.1 300.0) scale(0.3000)" d="M32 47 V87" fill="none" stroke="#8b949e" stroke-width="26" stroke-linecap="round" stroke-linejoin="round"/>
<path transform="translate(464.7 300.0) scale(0.3000)" d="M13 87 V13" fill="none" stroke="#8b949e" stroke-width="26" stroke-linecap="round" stroke-linejoin="round"/>
<path transform="translate(464.7 300.0) scale(0.3000)" d="M13 13 H32 A17 18 0 0 1 32 49 H13" fill="none" stroke="#8b949e" stroke-width="26" stroke-linecap="round" stroke-linejoin="round"/>
<path transform="translate(487.5 300.0) scale(0.3000)" d="M13 13 V87" fill="none" stroke="#8b949e" stroke-width="26" stroke-linecap="round" stroke-linejoin="round"/>
<path transform="translate(499.5 300.0) scale(0.3000)" d="M13 13 L51 87" fill="none" stroke="#8b949e" stroke-width="26" stroke-linecap="round" stroke-linejoin="round"/>
<path transform="translate(499.5 300.0) scale(0.3000)" d="M51 13 L13 87" fill="none" stroke="#8b949e" stroke-width="26" stroke-linecap="round" stroke-linejoin="round"/>
<path transform="translate(522.9 300.0) scale(0.3000)" d="M43 13 H13 V87 H43" fill="none" stroke="#8b949e" stroke-width="26" stroke-linecap="round" stroke-linejoin="round"/>
<path transform="translate(522.9 300.0) scale(0.3000)" d="M13 50 H36" fill="none" stroke="#8b949e" stroke-width="26" stroke-linecap="round" stroke-linejoin="round"/>
<path transform="translate(543.9 300.0) scale(0.3000)" d="M13 13 V87 H41" fill="none" stroke="#8b949e" stroke-width="26" stroke-linecap="round" stroke-linejoin="round"/>
<path transform="translate(577.5 300.0) scale(0.3000)" d="M13 87 V13" fill="none" stroke="#8b949e" stroke-width="26" stroke-linecap="round" stroke-linejoin="round"/>
<path transform="translate(577.5 300.0) scale(0.3000)" d="M13 13 H32 A17 18 0 0 1 32 49 H13" fill="none" stroke="#8b949e" stroke-width="26" stroke-linecap="round" stroke-linejoin="round"/>
<path transform="translate(600.3 300.0) scale(0.3000)" d="M13 13 V87" fill="none" stroke="#8b949e" stroke-width="26" stroke-linecap="round" stroke-linejoin="round"/>
<path transform="translate(600.3 300.0) scale(0.3000)" d="M53 13 V87" fill="none" stroke="#8b949e" stroke-width="26" stroke-linecap="round" stroke-linejoin="round"/>
<path transform="translate(600.3 300.0) scale(0.3000)" d="M13 50 H53" fill="none" stroke="#8b949e" stroke-width="26" stroke-linecap="round" stroke-linejoin="round"/>
<path transform="translate(624.3 300.0) scale(0.3000)" d="M32 13 A19 37 0 1 0 32 87 A19 37 0 1 0 32 13" fill="none" stroke="#8b949e" stroke-width="26" stroke-linecap="round" stroke-linejoin="round"/>
<path transform="translate(647.7 300.0) scale(0.3000)" d="M13 13 H59" fill="none" stroke="#8b949e" stroke-width="26" stroke-linecap="round" stroke-linejoin="round"/>
<path transform="translate(647.7 300.0) scale(0.3000)" d="M36 13 V87" fill="none" stroke="#8b949e" stroke-width="26" stroke-linecap="round" stroke-linejoin="round"/>
<path transform="translate(673.5 300.0) scale(0.3000)" d="M32 13 A19 37 0 1 0 32 87 A19 37 0 1 0 32 13" fill="none" stroke="#8b949e" stroke-width="26" stroke-linecap="round" stroke-linejoin="round"/>
<path transform="translate(696.9 300.0) scale(0.3000)" d="M57 13 H13 V87 H57 V56 H42" fill="none" stroke="#8b949e" stroke-width="26" stroke-linecap="round" stroke-linejoin="round"/>
<path transform="translate(722.1 300.0) scale(0.3000)" d="M13 87 V13 H36 A19 19 0 0 1 36 51 H13" fill="none" stroke="#8b949e" stroke-width="26" stroke-linecap="round" stroke-linejoin="round"/>
<path transform="translate(722.1 300.0) scale(0.3000)" d="M37 54 L54 87" fill="none" stroke="#8b949e" stroke-width="26" stroke-linecap="round" stroke-linejoin="round"/>
<path transform="translate(746.7 300.0) scale(0.3000)" d="M11 87 L38 15 L65 87" fill="none" stroke="#8b949e" stroke-width="26" stroke-linecap="round" stroke-linejoin="round"/>
<path transform="translate(746.7 300.0) scale(0.3000)" d="M23 62 H53" fill="none" stroke="#8b949e" stroke-width="26" stroke-linecap="round" stroke-linejoin="round"/>
<path transform="translate(773.7 300.0) scale(0.3000)" d="M13 87 V13" fill="none" stroke="#8b949e" stroke-width="26" stroke-linecap="round" stroke-linejoin="round"/>
<path transform="translate(773.7 300.0) scale(0.3000)" d="M13 13 H32 A17 18 0 0 1 32 49 H13" fill="none" stroke="#8b949e" stroke-width="26" stroke-linecap="round" stroke-linejoin="round"/>
<path transform="translate(796.5 300.0) scale(0.3000)" d="M13 13 V87" fill="none" stroke="#8b949e" stroke-width="26" stroke-linecap="round" stroke-linejoin="round"/>
<path transform="translate(796.5 300.0) scale(0.3000)" d="M53 13 V87" fill="none" stroke="#8b949e" stroke-width="26" stroke-linecap="round" stroke-linejoin="round"/>
<path transform="translate(796.5 300.0) scale(0.3000)" d="M13 50 H53" fill="none" stroke="#8b949e" stroke-width="26" stroke-linecap="round" stroke-linejoin="round"/>
<path transform="translate(820.5 300.0) scale(0.3000)" d="M43 13 H13 V87 H43" fill="none" stroke="#8b949e" stroke-width="26" stroke-linecap="round" stroke-linejoin="round"/>
<path transform="translate(820.5 300.0) scale(0.3000)" d="M13 50 H36" fill="none" stroke="#8b949e" stroke-width="26" stroke-linecap="round" stroke-linejoin="round"/>
<path transform="translate(841.5 300.0) scale(0.3000)" d="M13 13 V87" fill="none" stroke="#8b949e" stroke-width="26" stroke-linecap="round" stroke-linejoin="round"/>
<path transform="translate(841.5 300.0) scale(0.3000)" d="M13 13 H31 A24 37 0 0 1 31 87 H13" fill="none" stroke="#8b949e" stroke-width="26" stroke-linecap="round" stroke-linejoin="round"/>
</svg>
